# xmcd
#
# Track frame offsets: 
#        150
#        10772
#        26552
#        41655
#        55792
#        67967
#        78080
#        95907
#        108055
#        120390
#        135252
#
# Disc length: 2053 seconds
#
# Revision: 3
# Processed by: cddbd v1.5.2PL0 Copyright (c) Steve Scherf et al.
# Submitted via: ExactAudioCopy v1.0b1
#
DISCID=7b08030b
DTITLE=Albert King - Years Gone By
DYEAR=1983
DGENRE=Modern Electric Blues
TTITLE0=Wrapped Up In Love Again
TTITLE1=You Don't Love Me (Instrumental)
TTITLE2=Cockroach
TTITLE3=Killing Floor
TTITLE4=Lonely Man
TTITLE5=If The Washing Don't Get You, The Rinsing Will
TTITLE6=Drowning On Dry Land
TTITLE7=Drowning On Dry Land (Instrumental)
TTITLE8=Heart Fixing Business
TTITLE9=You Threw Your Love On Me Too Strong
TTITLE10=The Sky Is Crying
EXTD=© 1983 - 1990\nLabel: Stax Records - Fantasy Inc.\nSCD-8522-2 (ST
EXTD=S-2010)
EXTT0=
EXTT1=
EXTT2=
EXTT3=
EXTT4=
EXTT5=
EXTT6=
EXTT7=
EXTT8=
EXTT9=
EXTT10=
PLAYORDER=
